<svg xmlns="http://www.w3.org/2000/svg" width="23.516" height="23.996" viewBox="0 0 23.516 23.996">
  <g id="google-label" transform="translate(-8.916 -8.916)">
    <g id="Group_685" data-name="Group 685" transform="translate(8.916 8.916)">
      <path id="Path_6171" data-name="Path 6171" d="M2005.953,377.215a10.282,10.282,0,0,0-.253-2.453h-11.265v4.453h6.612a5.863,5.863,0,0,1-2.453,3.893l-.022.149,3.562,2.759.247.025a11.731,11.731,0,0,0,3.573-8.825" transform="translate(-1982.437 -364.95)" fill="#4285f4"/>
      <path id="Path_6172" data-name="Path 6172" d="M1790.6,475.652a11.436,11.436,0,0,0,7.945-2.906l-3.786-2.933a7.1,7.1,0,0,1-4.159,1.2,7.223,7.223,0,0,1-6.826-4.986l-.141.012-3.7,2.866-.048.135a11.989,11.989,0,0,0,10.718,6.612" transform="translate(-1778.601 -451.656)" fill="#34a853"/>
      <path id="Path_6173" data-name="Path 6173" d="M1759.435,317.364a7.386,7.386,0,0,1-.4-2.373,7.761,7.761,0,0,1,.387-2.373l-.007-.159-3.75-2.912-.123.058a11.972,11.972,0,0,0,0,10.772l3.893-3.013" transform="translate(-1754.263 -302.993)" fill="#fbbc05"/>
      <path id="Path_6174" data-name="Path 6174" d="M1790.6,182.993a6.65,6.65,0,0,1,4.639,1.786l3.386-3.306a11.527,11.527,0,0,0-8.025-3.12,11.989,11.989,0,0,0-10.718,6.612l3.879,3.013a7.252,7.252,0,0,1,6.839-4.986" transform="translate(-1778.601 -178.354)" fill="#eb4335"/>
    </g>
  </g>
</svg>
