<svg id="review-five-star" xmlns="http://www.w3.org/2000/svg" width="180.898" height="21.73" viewBox="0 0 180.898 21.73">
  <path id="Icon_ionic-ios-star" data-name="Icon ionic-ios-star" d="M24.764,10.9H17.08L14.745,3.929a.846.846,0,0,0-1.588,0L10.822,10.9H3.086a.838.838,0,0,0-.836.836.614.614,0,0,0,.016.141.8.8,0,0,0,.35.59l6.315,4.45L6.507,23.961a.838.838,0,0,0,.287.94.808.808,0,0,0,.47.2,1.024,1.024,0,0,0,.522-.188l6.164-4.393,6.164,4.393a.979.979,0,0,0,.522.188.75.75,0,0,0,.465-.2.828.828,0,0,0,.287-.94l-2.424-7.047,6.263-4.492.151-.131a.876.876,0,0,0,.272-.559A.885.885,0,0,0,24.764,10.9Z" transform="translate(37.124 -3.375)"/>
  <path id="Icon_ionic-ios-star-2" data-name="Icon ionic-ios-star" d="M24.764,10.9H17.08L14.745,3.929a.846.846,0,0,0-1.588,0L10.822,10.9H3.086a.838.838,0,0,0-.836.836.614.614,0,0,0,.016.141.8.8,0,0,0,.35.59l6.315,4.45L6.507,23.961a.838.838,0,0,0,.287.94.808.808,0,0,0,.47.2,1.024,1.024,0,0,0,.522-.188l6.164-4.393,6.164,4.393a.979.979,0,0,0,.522.188.75.75,0,0,0,.465-.2.828.828,0,0,0,.287-.94l-2.424-7.047,6.263-4.492.151-.131a.876.876,0,0,0,.272-.559A.885.885,0,0,0,24.764,10.9Z" transform="translate(-2.25 -3.375)"/>
  <path id="Icon_ionic-ios-star-3" data-name="Icon ionic-ios-star" d="M24.764,10.9H17.08L14.745,3.929a.846.846,0,0,0-1.588,0L10.822,10.9H3.086a.838.838,0,0,0-.836.836.614.614,0,0,0,.016.141.8.8,0,0,0,.35.59l6.315,4.45L6.507,23.961a.838.838,0,0,0,.287.94.808.808,0,0,0,.47.2,1.024,1.024,0,0,0,.522-.188l6.164-4.393,6.164,4.393a.979.979,0,0,0,.522.188.75.75,0,0,0,.465-.2.828.828,0,0,0,.287-.94l-2.424-7.047,6.263-4.492.151-.131a.876.876,0,0,0,.272-.559A.885.885,0,0,0,24.764,10.9Z" transform="translate(76.498 -3.375)"/>
  <path id="Icon_ionic-ios-star-4" data-name="Icon ionic-ios-star" d="M24.764,10.9H17.08L14.745,3.929a.846.846,0,0,0-1.588,0L10.822,10.9H3.086a.838.838,0,0,0-.836.836.614.614,0,0,0,.016.141.8.8,0,0,0,.35.59l6.315,4.45L6.507,23.961a.838.838,0,0,0,.287.94.808.808,0,0,0,.47.2,1.024,1.024,0,0,0,.522-.188l6.164-4.393,6.164,4.393a.979.979,0,0,0,.522.188.75.75,0,0,0,.465-.2.828.828,0,0,0,.287-.94l-2.424-7.047,6.263-4.492.151-.131a.876.876,0,0,0,.272-.559A.885.885,0,0,0,24.764,10.9Z" transform="translate(115.873 -3.375)"/>
  <path id="Icon_ionic-ios-star-outline" data-name="Icon ionic-ios-star-outline" d="M24.764,10.9H17.08L14.745,3.929a.846.846,0,0,0-1.588,0L10.822,10.9H3.086a.838.838,0,0,0-.836.836.614.614,0,0,0,.016.141.8.8,0,0,0,.35.59l6.315,4.45L6.507,23.961a.838.838,0,0,0,.287.94.808.808,0,0,0,.47.2,1.024,1.024,0,0,0,.522-.188l6.164-4.393,6.164,4.393a.979.979,0,0,0,.522.188.75.75,0,0,0,.465-.2.828.828,0,0,0,.287-.94l-2.424-7.047,6.263-4.492.151-.131a.876.876,0,0,0,.272-.559A.885.885,0,0,0,24.764,10.9Zm-6.644,4.832a1.467,1.467,0,0,0-.533,1.661l1.572,4.581a.21.21,0,0,1-.319.24L14.8,19.328a1.459,1.459,0,0,0-.851-.272,1.432,1.432,0,0,0-.846.272L9.056,22.206a.209.209,0,0,1-.319-.24l1.572-4.581a1.472,1.472,0,0,0-.538-1.672L5.541,12.73a.21.21,0,0,1,.12-.381h5.156a1.461,1.461,0,0,0,1.384-1l1.546-4.607a.21.21,0,0,1,.4,0l1.546,4.607a1.461,1.461,0,0,0,1.384,1h5.083a.207.207,0,0,1,.12.376Z" transform="translate(155.247 -3.375)"/>
</svg>
