<svg xmlns="http://www.w3.org/2000/svg" width="178.402" height="21.73" viewBox="0 0 178.402 21.73">
  <g id="review-three-star" transform="translate(-336 -6767)">
    <path id="Icon_ionic-ios-star" data-name="Icon ionic-ios-star" d="M24.764,10.9H17.08L14.745,3.929a.846.846,0,0,0-1.588,0L10.822,10.9H3.086a.838.838,0,0,0-.836.836.614.614,0,0,0,.016.141.8.8,0,0,0,.35.59l6.315,4.45L6.507,23.961a.838.838,0,0,0,.287.94.808.808,0,0,0,.47.2,1.024,1.024,0,0,0,.522-.188l6.164-4.393,6.164,4.393a.979.979,0,0,0,.522.188.75.75,0,0,0,.465-.2.828.828,0,0,0,.287-.94l-2.424-7.047,6.263-4.492.151-.131a.876.876,0,0,0,.272-.559A.885.885,0,0,0,24.764,10.9Z" transform="translate(372.75 6763.625)"/>
    <path id="Icon_ionic-ios-star-2" data-name="Icon ionic-ios-star" d="M24.764,10.9H17.08L14.745,3.929a.846.846,0,0,0-1.588,0L10.822,10.9H3.086a.838.838,0,0,0-.836.836.614.614,0,0,0,.016.141.8.8,0,0,0,.35.59l6.315,4.45L6.507,23.961a.838.838,0,0,0,.287.94.808.808,0,0,0,.47.2,1.024,1.024,0,0,0,.522-.188l6.164-4.393,6.164,4.393a.979.979,0,0,0,.522.188.75.75,0,0,0,.465-.2.828.828,0,0,0,.287-.94l-2.424-7.047,6.263-4.492.151-.131a.876.876,0,0,0,.272-.559A.885.885,0,0,0,24.764,10.9Z" transform="translate(333.75 6763.625)"/>
    <path id="Icon_ionic-ios-star-3" data-name="Icon ionic-ios-star" d="M24.764,10.9H17.08L14.745,3.929a.846.846,0,0,0-1.588,0L10.822,10.9H3.086a.838.838,0,0,0-.836.836.614.614,0,0,0,.016.141.8.8,0,0,0,.35.59l6.315,4.45L6.507,23.961a.838.838,0,0,0,.287.94.808.808,0,0,0,.47.2,1.024,1.024,0,0,0,.522-.188l6.164-4.393,6.164,4.393a.979.979,0,0,0,.522.188.75.75,0,0,0,.465-.2.828.828,0,0,0,.287-.94l-2.424-7.047,6.263-4.492.151-.131a.876.876,0,0,0,.272-.559A.885.885,0,0,0,24.764,10.9Z" transform="translate(411.75 6763.625)"/>
    <path id="Icon_ionic-ios-star-4" data-name="Icon ionic-ios-star" d="M24.764,10.9H17.08L14.745,3.929a.846.846,0,0,0-1.588,0L10.822,10.9H3.086a.838.838,0,0,0-.836.836.614.614,0,0,0,.016.141.8.8,0,0,0,.35.59l6.315,4.45L6.507,23.961a.838.838,0,0,0,.287.94.808.808,0,0,0,.47.2,1.024,1.024,0,0,0,.522-.188l6.164-4.393,6.164,4.393a.979.979,0,0,0,.522.188.75.75,0,0,0,.465-.2.828.828,0,0,0,.287-.94l-2.424-7.047,6.263-4.492.151-.131a.876.876,0,0,0,.272-.559A.885.885,0,0,0,24.764,10.9Z" transform="translate(449.75 6763.625)"/>
    <path id="Icon_ionic-ios-star-5" data-name="Icon ionic-ios-star" d="M24.764,10.9H17.08L14.745,3.929a.846.846,0,0,0-1.588,0L10.822,10.9H3.086a.838.838,0,0,0-.836.836.614.614,0,0,0,.016.141.8.8,0,0,0,.35.59l6.315,4.45L6.507,23.961a.838.838,0,0,0,.287.94.808.808,0,0,0,.47.2,1.024,1.024,0,0,0,.522-.188l6.164-4.393,6.164,4.393a.979.979,0,0,0,.522.188.75.75,0,0,0,.465-.2.828.828,0,0,0,.287-.94l-2.424-7.047,6.263-4.492.151-.131a.876.876,0,0,0,.272-.559A.885.885,0,0,0,24.764,10.9Z" transform="translate(488.75 6763.625)"/>
  </g>
</svg>
